<svg width="102" height="114" viewBox="0 0 102 114" fill="none" xmlns="http://www.w3.org/2000/svg">
<path d="M24.6367 72.0764L19.4467 75.9045L33.3815 92.7112L38.5715 88.8831L24.6367 72.0764Z" fill="#807AC9"/>
<path d="M54.3217 32.6334L46.4465 37.1331L61.9944 58.5081L70.0716 52.8832L54.3217 32.6334Z" fill="#807AC9"/>
<path d="M47.572 86.6313L51.0688 94.9838L73.4465 81.7281L68.9471 72.006L47.572 86.6313Z" fill="#807AC9"/>
<path d="M39.6965 65.2581C39.6965 68.3647 42.2149 70.8831 45.3215 70.8831C48.4281 70.8831 50.9465 68.3647 50.9465 65.2581C50.9465 62.1515 48.4281 59.6331 45.3215 59.6331C42.2149 59.6331 39.6965 62.1515 39.6965 65.2581Z" fill="#807AC9"/>
<path d="M41.9465 63.0081H23.9465V67.5081H41.9465V63.0081Z" fill="#807AC9"/>
<path d="M51.9942 44.7812C56.8744 41.2356 60.2917 36.0297 61.6039 30.1419C62.916 24.2542 62.0328 18.0898 59.1201 12.8074C56.2074 7.52499 51.4658 3.48814 45.7864 1.4555C40.1069 -0.577145 33.8807 -0.465639 28.2776 1.76906C22.6746 4.00376 18.0806 8.20779 15.3589 13.5911C12.6373 18.9745 11.9753 25.1664 13.4975 31.0035C15.0196 36.8405 18.6211 41.9206 23.6251 45.2893C28.6291 48.6579 34.6911 50.0831 40.6719 49.297L39.3282 39.0742C35.839 39.5328 32.3024 38.7014 29.383 36.7361C26.4637 34.7708 24.3625 31.807 23.4745 28.4017C22.5865 24.9963 22.9727 21.3839 24.5605 18.2432C26.1483 15.1025 28.8285 12.6499 32.0974 11.3461C35.3662 10.0424 38.9986 9.97735 42.312 11.1632C45.6255 12.3491 48.3918 14.7042 50.091 17.786C51.7903 20.8678 52.3056 24.4641 51.5401 27.899C50.7745 31.334 48.7809 34.3711 45.9337 36.4397L51.9942 44.7812Z" fill="#807AC9"/>
<path d="M63.3261 75.7919C66.1882 80.0882 70.5509 83.1614 75.56 84.4098C80.5691 85.6581 85.8638 84.9918 90.4074 82.5412C94.9509 80.0906 98.4161 76.0322 100.124 71.1608C101.833 66.2893 101.661 60.9556 99.6432 56.204C97.6253 51.4524 93.9064 47.6252 89.2147 45.4718C84.523 43.3183 79.1964 42.9937 74.2779 44.5614C69.3594 46.1292 65.2033 49.4765 62.6233 53.9479C60.0433 58.4192 59.2252 63.6926 60.3293 68.7355L68.7618 66.8892C68.1177 63.9472 68.595 60.8707 70.1001 58.2621C71.6053 55.6535 74.0301 53.7006 76.8995 52.786C79.769 51.8713 82.8766 52.0607 85.6137 53.3171C88.3509 54.5734 90.5205 56.8062 91.6978 59.5783C92.875 62.3504 92.9752 65.4621 91.9785 68.3042C90.9819 71.1462 88.9603 73.5139 86.3095 74.9436C83.6588 76.3733 80.5698 76.762 77.6475 76.0337C74.7252 75.3054 72.1799 73.5125 70.5102 71.006L63.3261 75.7919Z" fill="#807AC9"/>
<path d="M56.2952 91.8749C54.4228 88.7654 51.4571 86.4668 47.9788 85.4292C44.5005 84.3916 40.7602 84.6897 37.4902 86.2652C34.2202 87.8406 31.656 90.58 30.2997 93.9468C28.9435 97.3137 28.8929 101.066 30.1577 104.468C31.4226 107.87 33.9119 110.678 37.1382 112.341C40.3645 114.004 44.0954 114.403 47.6004 113.459C51.1055 112.516 54.1321 110.298 56.0878 107.241C58.0435 104.183 58.7873 100.505 58.1737 96.9275L52.1915 97.9537C52.5495 100.041 52.1156 102.186 50.9746 103.97C49.8336 105.754 48.0679 107.048 46.023 107.599C43.9782 108.149 41.8015 107.916 39.9193 106.946C38.037 105.976 36.5848 104.338 35.8468 102.353C35.1089 100.368 35.1384 98.1789 35.9297 96.2147C36.7209 94.2505 38.2169 92.6523 40.1246 91.7332C42.0324 90.814 44.2145 90.6401 46.2438 91.2455C48.273 91.8508 50.0032 93.1918 51.0956 95.0059L56.2952 91.8749Z" fill="#807AC9"/>
<path d="M26.1966 67.5083C26.2932 67.5083 24.2013 61.6621 21.4855 59.4521C18.6492 57.144 15.8647 56.2729 12.6367 56.3901C9.40862 56.5073 6.34056 57.8253 4.03326 60.086C1.72597 62.3466 0.345612 65.3871 0.162468 68.6121C-0.020668 71.8371 1.00659 75.0143 3.04312 77.5217C5.07965 80.029 7.97876 81.6858 11.1728 82.1678C14.3668 82.6497 17.6257 81.9221 20.3114 80.1273C22.9971 78.3325 24.745 76.2684 25.5216 73.1329L22.8216 69.7579C22.3685 71.5872 18.8771 74.5893 17.3102 75.6364C15.7434 76.6834 13.8421 77.108 11.9787 76.8268C10.1153 76.5456 8.42391 75.579 7.23579 74.1162C6.04766 72.6534 5.44835 70.7998 5.5552 68.9184C5.66204 67.0369 6.46735 65.263 7.81345 63.9442C9.15953 62.6253 10.9495 61.8564 12.8327 61.788C14.716 61.7196 16.557 62.3566 17.9952 63.5743C19.4334 64.7921 20.8403 67.5075 20.8403 67.5075C20.8403 67.5075 24.843 67.5083 26.1966 67.5083Z" fill="#807AC9"/>
</svg>
